<?xml version="1.0" encoding="UTF-8" standalone="no"?>
<!DOCTYPE svg PUBLIC "-//W3C//DTD SVG 1.1//EN"
"http://www.w3.org/Graphics/SVG/1.1/DTD/svg11.dtd">


<!-- Page 1 -->
<svg x="0" y="0" width="880" height="495" viewBox="0 0 880 495" version="1.1" xmlns="http://www.w3.org/2000/svg" xmlns:xlink="http://www.w3.org/1999/xlink"
style="display: block;margin-left: auto;margin-right: auto;">
<defs>
<clipPath id="c0_1"><path d="M0,495L0,0L880,0l0,495Z" /></clipPath>

<style type="text/css"><![CDATA[

.g1_1{
fill: #FFFFFF;
}
.g2_1{
fill: none;
stroke: #000000;
stroke-width: 1.4666667;
stroke-linecap: butt;
stroke-linejoin: miter;
}
.g3_1{
fill: #FFE699;
}
.g4_1{
fill: none;
stroke: #000000;
stroke-width: 2.3833332;
stroke-linecap: butt;
stroke-linejoin: miter;
stroke-dasharray: 3,3;
}
.g5_1{
}
.g6_1{
fill: none;
stroke: #FF0000;
stroke-width: 3.1166666;
stroke-linecap: butt;
stroke-linejoin: miter;
}
.g7_1{
fill: #FF0000;
}

.s1_1{
font-size: 21.45px;
font-family: Calibri_7;
fill: TRANSPARENT;
}
.s2_1{
font-size: 21.49px;
font-family: Calibri_7;
fill: TRANSPARENT;
}
.s3_1{
font-size: 27.50px;
font-family: Calibri_7;
fill: TRANSPARENT;
}
.s4_1{
font-size: 36.67px;
font-family: Calibri_7;
fill: TRANSPARENT;
}
.s5_1{
font-size: 27.54px;
font-family: Calibri_7;
fill: TRANSPARENT;
}
.s6_1{
font-size: 36.70px;
font-family: Calibri_7;
fill: TRANSPARENT;
}
.s7_1{
font-size: 21.45px;
font-family: Calibri-Bold_9;
fill: TRANSPARENT;
}
text::-moz-selection {
	color: transparent;
	background: rgba(0, 106, 173, 0.4);
}
text::selection {
	color: transparent;
	background: rgba(0, 106, 173, 0.4);
}

]]></style>

</defs>
<path d="M0,0
L0,495
L880,495
L880,0 Z " 
fill="#FFFFFF" stroke="none" />
<g clip-path="url(#c0_1)">
<path fill-rule="evenodd" d="M0,495l880,0L880,0L0,0L0,495Z" class="g1_1" />
</g>
<path d="M689.7,163.3l98.3,0l0,-69.4l-98.3,0l0,69.4Z" class="g2_1" />
<path fill-rule="evenodd" d="M697,124.7l84.7,0l0,-21.8l-84.7,0l0,21.8Z" class="g3_1" />
<path d="M697,124.7l84.7,0l0,-21.8l-84.7,0l0,21.8Z" class="g2_1" />
<g clip-path="url(#c0_1)">
<g fill="#000000" >
<use xlink:href="#f0_2t" transform="matrix(14,0,0,14,720.9,120.9)" />
<use xlink:href="#f0_77" transform="matrix(14,0,0,14,729.7,120.9)" />
<use xlink:href="#f0_b5" transform="matrix(14,0,0,14,740,120.9)" />
<use xlink:href="#f0_a5" transform="matrix(14,0,0,14,748.4,120.9)" />
</g>
</g>
<text 
x="720" 
y="120" 
dx="0,-1.7,0,0" 
class="s1_1"
>Task</text>

<path d="M697.1,153.5l84.7,0l0,-22.5l-84.7,0l0,22.5Z" class="g4_1" />
<g clip-path="url(#c0_1)">
<g fill="#000000" >
<use xlink:href="#f0_2t" transform="matrix(14.1,0,0,14.1,709.2,149.3)" />
<use xlink:href="#f0_9n" transform="matrix(14.1,0,0,14.1,719.6,149.3)" />
<use xlink:href="#f0_b1" transform="matrix(14.1,0,0,14.1,730.8,149.3)" />
<use xlink:href="#f0_7z" transform="matrix(14.1,0,0,14.1,738,149.3)" />
<use xlink:href="#f0_77" transform="matrix(14.1,0,0,14.1,748.6,149.3)" />
<use xlink:href="#f0_7v" transform="matrix(14.1,0,0,14.1,758.9,149.3)" />
<use xlink:href="#f0_1n" transform="matrix(18,0,0,18,237.3,189.6)" />
</g>
</g>
<text 
x="709" 
y="149" 
dx="0,0,-0.1,-0.3,-0.1,0" 
class="s2_1"
>Thread</text>

<g clip-path="url(#c0_1)">
<g fill="#000000" >
<use xlink:href="#f0_77" transform="matrix(18,0,0,18,246,189.6)" />
<use xlink:href="#f0_ch" transform="matrix(18,0,0,18,258.9,189.6)" />
<use xlink:href="#f0_77" transform="matrix(18,0,0,18,271,189.6)" />
<use xlink:href="#f0_od" transform="matrix(18,0,0,18,290.3,189.6)" />
<use xlink:href="#f0_j" transform="matrix(18,0,0,18,307.3,189.6)" />
<use xlink:href="#f0_u6" transform="matrix(18,0,0,18,321.9,189.6)" />
<use xlink:href="#f0_u6" transform="matrix(18,0,0,18,335.9,189.6)" />
</g>
</g>
<text 
x="237" 
y="189" 
dx="0,0,-0.3,-0.3,0,-0.1,0,0.2,0,0.2" 
class="s3_1"
>Java / C++</text>

<path fill-rule="evenodd" d="M212.9,146.1l162.6,0l0,-43.8l-162.6,0l0,43.8Z" class="g3_1" />
<path d="M212.9,146.1l162.6,0l0,-43.8l-162.6,0l0,43.8Z" class="g2_1" />
<g clip-path="url(#c0_1)">
<g fill="#000000" >
<use xlink:href="#f0_p" transform="matrix(24,0,0,24,237.8,136.6)" />
<use xlink:href="#f0_7z" transform="matrix(24,0,0,24,260.3,136.6)" />
<use xlink:href="#f0_7l" transform="matrix(24,0,0,24,278.6,136.6)" />
<use xlink:href="#f0_am" transform="matrix(24,0,0,24,293.9,136.6)" />
<use xlink:href="#f0_7v" transform="matrix(24,0,0,24,313.2,136.6)" />
<use xlink:href="#f0_7z" transform="matrix(24,0,0,24,332.4,136.6)" />
</g>
</g>
<text 
x="237" 
y="136" 
dx="0,0,0,-0.2,0,0" 
class="s4_1"
>Decode</text>

<path d="M199.4,157.2l188.6,0L388,94L199.4,94l0,63.2Z" class="g4_1" />
<g clip-path="url(#c0_1)">
<g fill="#000000" >
<use xlink:href="#f0_1x" transform="matrix(18,0,0,18,509.2,373.3)" />
<use xlink:href="#f0_5" transform="matrix(18,0,0,18,532.8,373.3)" />
<use xlink:href="#f0_2t" transform="matrix(18,0,0,18,546.5,373.3)" />
<use xlink:href="#f0_1r" transform="matrix(18,0,0,18,559.9,373.3)" />
<use xlink:href="#f0_5" transform="matrix(18,0,0,18,571.4,373.3)" />
<use xlink:href="#f0_i" transform="matrix(18,0,0,18,587.4,373.3)" />
</g>
</g>
<text 
x="509" 
y="373" 
dx="0,0,-2.3,0,0,0" 
class="s5_1"
>MATLAB</text>

<path fill-rule="evenodd" d="M474.8,329.8l162.8,0l0,-227.5l-162.8,0l0,227.5Z" class="g3_1" />
<path d="M474.8,329.8l162.8,0l0,-227.5l-162.8,0l0,227.5Z" class="g2_1" />
<g clip-path="url(#c0_1)">
<g fill="#000000" >
<use xlink:href="#f0_2g" transform="matrix(24,0,0,24,500,206.4)" />
<use xlink:href="#f0_b1" transform="matrix(24,0,0,24,518.9,206.4)" />
<use xlink:href="#f0_am" transform="matrix(24,0,0,24,531.2,206.4)" />
<use xlink:href="#f0_7l" transform="matrix(24,0,0,24,550.5,206.4)" />
<use xlink:href="#f0_7z" transform="matrix(24,0,0,24,566,206.4)" />
<use xlink:href="#f0_b5" transform="matrix(24,0,0,24,584.4,206.4)" />
<use xlink:href="#f0_b5" transform="matrix(24,0,0,24,598.8,206.4)" />
<use xlink:href="#f0_1c" transform="matrix(24,0,0,24,503.6,250.4)" />
</g>
</g>
<text 
x="499" 
y="206" 
dx="0,0,-0.5,0,0,0.1,0" 
class="s4_1"
>Process</text>

<g clip-path="url(#c0_1)">
<g fill="#000000" >
<use xlink:href="#f0_ae" transform="matrix(24,0,0,24,512.9,250.4)" />
<use xlink:href="#f0_77" transform="matrix(24,0,0,24,542.2,250.4)" />
<use xlink:href="#f0_9d" transform="matrix(24,0,0,24,559.8,250.4)" />
<use xlink:href="#f0_7z" transform="matrix(24,0,0,24,576.7,250.4)" />
<use xlink:href="#f0_b5" transform="matrix(24,0,0,24,594.9,250.4)" />
</g>
</g>
<text 
x="503" 
y="250" 
dx="0,0,0,0,-0.4,0" 
class="s6_1"
>Images</text>

<path d="M461.5,342L650,342L650,94L461.5,94l0,248Z" class="g4_1" />
<path d="M160.6,123.2l31,1l0,2.4l-31.1,-1Zm29.6,-2.4l9,4.8l-9.3,4.3Z" class="g5_1" />
<path d="M389,124.9l68.7,86.5l-1.8,1.5L387.1,126.4Zm70.4,83.2l2.1,10l-9.2,-4.3Z" class="g5_1" />
<g clip-path="url(#c0_1)">
<g fill="#000000" >
<use xlink:href="#f0_j" transform="matrix(14,0,0,14,83.6,131.3)" />
<use xlink:href="#f0_77" transform="matrix(14,0,0,14,94.9,131.3)" />
<use xlink:href="#f0_ae" transform="matrix(14,0,0,14,105.2,131.3)" />
<use xlink:href="#f0_qg" transform="matrix(14,0,0,14,127,131.3)" />
<use xlink:href="#f0_ry" transform="matrix(14,0,0,14,137.6,131.3)" />
<use xlink:href="#f0_j" transform="matrix(14,0,0,14,83.6,314.9)" />
</g>
</g>
<text 
x="83" 
y="131" 
dx="0,-0.1,0,-0.1,-0.1,-0.1" 
class="s1_1"
>Cam #1</text>

<g clip-path="url(#c0_1)">
<g fill="#000000" >
<use xlink:href="#f0_77" transform="matrix(14,0,0,14,94.9,314.9)" />
<use xlink:href="#f0_ae" transform="matrix(14,0,0,14,105.2,314.9)" />
<use xlink:href="#f0_qg" transform="matrix(14,0,0,14,127,314.9)" />
<use xlink:href="#f0_rz" transform="matrix(14,0,0,14,137.7,314.9)" />
<use xlink:href="#f0_1n" transform="matrix(18,0,0,18,237.3,373.3)" />
</g>
</g>
<text 
x="83" 
y="314" 
dx="0,-0.1,0,-0.1,-0.1,0" 
class="s1_1"
>Cam #2</text>

<g clip-path="url(#c0_1)">
<g fill="#000000" >
<use xlink:href="#f0_77" transform="matrix(18,0,0,18,246,373.3)" />
<use xlink:href="#f0_ch" transform="matrix(18,0,0,18,258.9,373.3)" />
<use xlink:href="#f0_77" transform="matrix(18,0,0,18,271,373.3)" />
<use xlink:href="#f0_od" transform="matrix(18,0,0,18,290.2,373.3)" />
<use xlink:href="#f0_j" transform="matrix(18,0,0,18,307.3,373.3)" />
<use xlink:href="#f0_u6" transform="matrix(18,0,0,18,321.9,373.3)" />
<use xlink:href="#f0_u6" transform="matrix(18,0,0,18,335.8,373.3)" />
</g>
</g>
<text 
x="237" 
y="373" 
dx="0,0,-0.3,-0.4,0,-0.2,0,0.2,0,0.2" 
class="s5_1"
>Java / C++</text>

<path fill-rule="evenodd" d="M212.9,329.8l162.6,0l0,-44l-162.6,0l0,44Z" class="g3_1" />
<path d="M212.9,329.8l162.6,0l0,-44l-162.6,0l0,44Z" class="g2_1" />
<g clip-path="url(#c0_1)">
<g fill="#000000" >
<use xlink:href="#f0_p" transform="matrix(24,0,0,24,237.8,320.2)" />
<use xlink:href="#f0_7z" transform="matrix(24,0,0,24,260.3,320.2)" />
<use xlink:href="#f0_7l" transform="matrix(24,0,0,24,278.6,320.2)" />
<use xlink:href="#f0_am" transform="matrix(24,0,0,24,293.9,320.2)" />
<use xlink:href="#f0_7v" transform="matrix(24,0,0,24,313.2,320.2)" />
<use xlink:href="#f0_7z" transform="matrix(24,0,0,24,332.4,320.2)" />
</g>
</g>
<text 
x="237" 
y="320" 
dx="0,0,0,-0.2,0,0" 
class="s4_1"
>Decode</text>

<path d="M199.4,342.6l188.6,0l0,-68.8l-188.6,0l0,68.8Z" class="g4_1" />
<path d="M160.5,306.7l31.1,0.3l0,2.4l-31.1,-0.3Zm29.6,-3.1l9.1,4.6l-9.2,4.6Z" class="g5_1" />
<path d="M388.9,309.1l68.7,-84.3l-1.8,-1.6l-68.7,84.3Zm70.4,-81l2.2,-10l-9.3,4.2Z" class="g5_1" />
<path d="M650,216.9l32.3,0.5l0,2.4L650,219.3ZM680.8,214l9.1,4.7l-9.2,4.4Z" class="g5_1" />
<g clip-path="url(#c0_1)">
<g fill="#000000" >
<use xlink:href="#f0_1r" transform="matrix(14,0,0,14,702.4,225)" />
<use xlink:href="#f0_am" transform="matrix(14,0,0,14,711.4,225)" />
<use xlink:href="#f0_7l" transform="matrix(14,0,0,14,722.7,225)" />
<use xlink:href="#f0_77" transform="matrix(14,0,0,14,731.5,225)" />
<use xlink:href="#f0_bf" transform="matrix(14,0,0,14,741.6,225)" />
<use xlink:href="#f0_9q" transform="matrix(14,0,0,14,748.8,225)" />
<use xlink:href="#f0_am" transform="matrix(14,0,0,14,753.7,225)" />
<use xlink:href="#f0_af" transform="matrix(14,0,0,14,765,225)" />
</g>
</g>
<text 
x="702" 
y="224" 
dx="0,0,0,-0.2,-0.2,0,0,0" 
class="s1_1"
>Location</text>

<path d="M442.8,218.1c0,-7.6,6.5,-13.8,14.5,-13.8c8,0,14.5,6.2,14.5,13.8c0,7.6,-6.5,13.7,-14.5,13.7c-8,0,-14.5,-6.1,-14.5,-13.7Z" class="g6_1" />
<g clip-path="url(#c0_1)">
<g fill="#FF0000" >
<use xlink:href="#f1_2t" transform="matrix(14,0,0,14,387.5,408.7)" />
<use xlink:href="#f1_b1" transform="matrix(14,0,0,14,397.1,408.7)" />
<use xlink:href="#f1_77" transform="matrix(14,0,0,14,404.2,408.7)" />
<use xlink:href="#f1_af" transform="matrix(14,0,0,14,414.8,408.7)" />
<use xlink:href="#f1_b5" transform="matrix(14,0,0,14,426.4,408.7)" />
<use xlink:href="#f1_a8" transform="matrix(14,0,0,14,434.9,408.7)" />
<use xlink:href="#f1_77" transform="matrix(14,0,0,14,440.3,408.7)" />
<use xlink:href="#f1_bf" transform="matrix(14,0,0,14,450.7,408.7)" />
<use xlink:href="#f1_9q" transform="matrix(14,0,0,14,458.2,408.7)" />
<use xlink:href="#f1_am" transform="matrix(14,0,0,14,463.5,408.7)" />
<use xlink:href="#f1_af" transform="matrix(14,0,0,14,475,408.7)" />
</g>
</g>
<text 
x="387" 
y="408" 
dx="0,-1.1,-0.5,0,0,0,0.1,-0.2,0,0,0" 
class="s7_1"
>Translation</text>

<path d="M438.2,383.4L457.8,239.8l-3.1,-0.5L435.1,383ZM460.7,241.7l-3.4,-9.9l-5.9,8.7Z" class="g7_1" />

<defs>
	<path d="M372.2,-4.8c0,0,-18,0,-30.6,1.9c0,0,-12.7,1.9,-20.2,4.4c0,0,-7.4,2.6,-10.4,7c0,0,-3,4.5,-3,10.5l0,837.5l-271.8,0c0,0,-6,0,-10.9,3c0,0,-4.8,3,-7.8,9.3c0,0,-3,6.3,-4.8,16.7c0,0,-1.9,10.4,-1.9,24.6c0,0,0,14.1,1.8,24.8c0,0,1.9,10.8,4.9,17.5c0,0,3,6.7,7.8,9.7c0,0,4.9,3,10.9,3l672,0c0,0,5.9,0,10.8,-3c0,0,4.8,-3,8.2,-9.7c0,0,3.4,-6.7,4.9,-17.4c0,0,1.4,-10.8,1.4,-24.9c0,0,0,-14.2,-1.4,-24.6c0,0,-1.5,-10.4,-4.9,-16.7c0,0,-3.4,-6.3,-8.2,-9.3c0,0,-4.9,-3,-10.8,-3l-271.9,0L436.3,19c0,0,0,-6,-3,-10.5c0,0,-3,-4.4,-10.4,-7c0,0,-7.5,-2.5,-19.8,-4.4c0,0,-12.3,-1.9,-30.9,-1.9Z" 
	id="f0_2t"
	transform="scale(0.001,-0.001)" />

	<path d="M320.7,82.1c0,0,48.5,0,89.9,24.7c0,0,41.4,24.6,87,75.3l0,142.5l-105.3,0c0,0,-50.7,0,-88.1,-8.6c0,0,-37.3,-8.5,-61.9,-25.3c0,0,-24.7,-16.8,-36.2,-40.3c0,0,-11.6,-23.5,-11.6,-54.1c0,0,0,-52.2,33.2,-83.2c0,0,33.2,-31,93,-31ZM301.3,-13.6c0,0,-53,0,-95.9,13.7c0,0,-42.9,13.8,-73.2,39.9c0,0,-30.2,26.1,-47,64.1c0,0,-16.8,38,-16.8,86.5c0,0,0,56.7,23.2,98.5c0,0,23.1,41.7,66.4,69.3c0,0,43.3,27.6,106,41.4c0,0,62.7,13.8,141,13.8l92.6,0l0,52.4c0,0,0,39,-8.2,68.9c0,0,-8.2,30,-26.5,49.8c0,0,-18.3,19.9,-47.3,30c0,0,-29.1,10.1,-71.6,10.1c0,0,-45.5,0,-81.6,-10.8c0,0,-36.2,-10.8,-63.4,-23.9c0,0,-27.2,-13.1,-45.5,-23.9c0,0,-18.3,-10.8,-27.2,-10.8c0,0,-6,0,-10.5,3c0,0,-4.4,3,-7.8,8.9c0,0,-3.3,6,-4.8,15.3c0,0,-1.5,9.4,-1.5,20.6c0,0,0,18.6,2.6,29.5c0,0,2.6,10.8,12.7,20.5c0,0,10,9.7,34.6,22.7c0,0,24.6,13,56.7,23.8c0,0,32.1,10.7,70.1,17.8c0,0,38,7,76.8,7c0,0,72.3,0,123,-16.4c0,0,50.7,-16.4,82.1,-48.2c0,0,31.3,-31.8,45.4,-78.9c0,0,14.2,-47,14.2,-109.8l0,-453.7c0,0,0,-8.9,-5.9,-13.4c0,0,-6,-4.4,-16.5,-6.6c0,0,-10.4,-2.3,-30.6,-2.3c0,0,-19.3,0,-30.9,2.3c0,0,-11.6,2.2,-16.8,6.6c0,0,-5.2,4.4,-5.2,13.4l0,67.1c0,0,-44.1,-47,-98.2,-72.6c0,0,-54.1,-25.6,-114.5,-25.6Z" 
	id="f0_77"
	transform="scale(0.001,-0.001)" />

	<path d="M272.5,-13.6c0,0,-35.8,0,-68.3,5.7c0,0,-32.4,5.6,-58.2,14.2c0,0,-25.7,8.7,-43.6,18.1c0,0,-17.9,9.4,-26.1,17c0,0,-8.2,7.5,-11.9,20.9c0,0,-3.8,13.4,-3.8,36.6c0,0,0,14.1,1.5,23.8c0,0,1.5,9.7,3.7,15.7c0,0,2.3,6,6.4,8.6c0,0,4.1,2.6,9.3,2.6c0,0,8.2,0,24.3,-10.1c0,0,16,-10.2,39.5,-22.2c0,0,23.5,-12,55.6,-22.1c0,0,32,-10.1,73.8,-10.1c0,0,31.4,0,56.7,6.7c0,0,25.4,6.7,44,19.7c0,0,18.7,13,28.7,33.1c0,0,10.1,20.2,10.1,47.7c0,0,0,28.4,-14.5,47.8c0,0,-14.6,19.4,-38.4,34.3c0,0,-23.9,14.9,-53.7,26.5c0,0,-29.8,11.6,-61.5,24.3c0,0,-31.7,12.7,-61.9,28.7c0,0,-30.2,16.1,-54,39.2c0,0,-23.9,23.1,-38.4,55.2c0,0,-14.6,32.1,-14.6,76.9c0,0,0,39.6,15.3,75.8c0,0,15.3,36.2,45.9,63.4c0,0,30.6,27.3,76.4,43.7c0,0,45.9,16.4,107.1,16.4c0,0,26.8,0,53.6,-4.5c0,0,26.9,-4.6,48.5,-11.4c0,0,21.7,-6.8,36.9,-14.8c0,0,15.3,-8,23.2,-14c0,0,7.8,-6.1,10.4,-10.6c0,0,2.6,-4.4,3.7,-10c0,0,1.2,-5.6,2.3,-13.8c0,0,1.1,-8.2,1.1,-20.1c0,0,0,-12.7,-1.1,-22c0,0,-1.1,-9.3,-3.8,-15.2c0,0,-2.6,-6,-6.3,-8.6c0,0,-3.7,-2.6,-8.2,-2.6c0,0,-6.7,0,-19.4,8.2c0,0,-12.7,8.3,-32.8,17.7c0,0,-20.1,9.4,-47.4,17.7c0,0,-27.2,8.2,-62.2,8.2c0,0,-31.3,0,-55.2,-7c0,0,-23.9,-7.1,-39.1,-20.1c0,0,-15.3,-13.1,-23.1,-30.9c0,0,-7.9,-17.9,-7.9,-38.7c0,0,0,-29.2,14.9,-48.9c0,0,14.9,-19.8,38.8,-34.8c0,0,23.8,-14.9,54.4,-26.8c0,0,30.6,-12,62.3,-24.6c0,0,31.6,-12.7,62.6,-28.4c0,0,30.9,-15.7,54.8,-38.1c0,0,23.8,-22.4,38.4,-53.7c0,0,14.5,-31.4,14.5,-74.7c0,0,0,-51.5,-19,-91.8c0,0,-19,-40.3,-54.1,-67.9c0,0,-35,-27.6,-83.5,-41.8c0,0,-48.5,-14.1,-106.7,-14.1Z" 
	id="f0_b5"
	transform="scale(0.001,-0.001)" />

	<path d="M175.6,-4.8c0,0,-17.9,0,-29.9,1.5c0,0,-11.9,1.5,-19,4.4c0,0,-7.1,3,-9.7,7.1c0,0,-2.6,4.1,-2.6,10l0,997.3c0,0,0,6,2.6,10.4c0,0,2.6,4.5,9.7,7.5c0,0,7.1,3,19,4.5c0,0,12,1.5,29.9,1.5c0,0,18.6,0,30.5,-1.5c0,0,12,-1.5,18.7,-4.5c0,0,6.7,-3,9.7,-7.5c0,0,3,-4.5,3,-10.4l0,-607.8l254,279c0,0,6,7.4,12.7,12.3c0,0,6.7,4.8,16.1,8.2c0,0,9.3,3.3,22,4.5c0,0,12.7,1.1,30.7,1.1c0,0,18.6,0,31.3,-1.1c0,0,12.7,-1.2,20.6,-3.8c0,0,7.8,-2.6,11.2,-6.7c0,0,3.4,-4.1,3.4,-10.8c0,0,0,-8.9,-4.9,-17.9c0,0,-4.9,-9,-16.1,-20.9L374.7,408.4L647.9,54c0,0,9.7,-12.6,13.9,-20.5c0,0,4.1,-7.8,4.1,-14.5c0,0,0,-6,-3,-10.5c0,0,-3,-4.4,-10.1,-7.4c0,0,-7.1,-2.9,-19.8,-4.4c0,0,-12.7,-1.5,-32.1,-1.5c0,0,-20.1,0,-33.2,1.1c0,0,-13.1,1.2,-22,3.7c0,0,-9,2.6,-14.6,7.4c0,0,-5.5,4.9,-10,11.6L237.5,390.5l0,-372.3c0,0,0,-5.9,-3,-10c0,0,-3,-4.1,-9.7,-7.1c0,0,-6.7,-2.9,-18.6,-4.4c0,0,-12,-1.5,-30.6,-1.5Z" 
	id="f0_a5"
	transform="scale(0.001,-0.001)" />

	<path d="M175.6,-4.8c0,0,-17.9,0,-29.9,1.5c0,0,-11.9,1.5,-19,4.4c0,0,-7.1,3,-9.7,7.1c0,0,-2.6,4.1,-2.6,10l0,997.3c0,0,0,6,2.6,10.4c0,0,2.6,4.5,9.7,7.5c0,0,7.1,3,19,4.5c0,0,12,1.5,29.9,1.5c0,0,18.6,0,30.5,-1.5c0,0,12,-1.5,18.7,-4.5c0,0,6.7,-3,9.7,-7.4c0,0,3,-4.5,3,-10.5l0,-401.6c0,0,52.9,56.1,106.6,83.3c0,0,53.7,27.3,108.1,27.3c0,0,67.1,0,112.9,-22.8c0,0,45.9,-22.8,74.2,-60.9c0,0,28.3,-38.1,40.7,-89.3c0,0,12.3,-51.2,12.3,-123.7l0,-409.5c0,0,0,-6,-3,-10.1c0,0,-3,-4.1,-9.7,-7.1c0,0,-6.7,-2.9,-18.7,-4.4c0,0,-11.9,-1.5,-29.8,-1.5c0,0,-18.7,0,-30.6,1.5c0,0,-11.9,1.5,-18.6,4.4c0,0,-6.8,3,-9.7,7.1c0,0,-3,4.1,-3,10.1l0,394c0,0,0,57.6,-9,92.8c0,0,-8.9,35.1,-26.1,60.5c0,0,-17.1,25.4,-44.3,38.9c0,0,-27.2,13.5,-63,13.5c0,0,-46.2,0,-92.4,-32.9c0,0,-46.2,-32.9,-96.9,-96.5l0,-470.3c0,0,0,-6,-3,-10.1c0,0,-3,-4.1,-9.7,-7.1c0,0,-6.7,-2.9,-18.6,-4.4c0,0,-12,-1.5,-30.6,-1.5Z" 
	id="f0_9n"
	transform="scale(0.001,-0.001)" />

	<path d="M175.6,-4.8c0,0,-17.9,0,-29.9,1.5c0,0,-11.9,1.5,-19,4.4c0,0,-7.1,3,-9.7,7.1c0,0,-2.6,4.1,-2.6,10l0,671.5c0,0,0,5.9,2.2,10c0,0,2.3,4.1,9,7.5c0,0,6.7,3.3,17.1,4.5c0,0,10.5,1.1,27.6,1.1c0,0,16.5,0,27.3,-1.1c0,0,10.8,-1.2,16.7,-4.5c0,0,6,-3.4,8.6,-7.5c0,0,2.6,-4.1,2.6,-10l0,-97.8c0,0,27.6,40.7,51.8,66.3c0,0,24.3,25.6,45.9,40.3c0,0,21.6,14.7,42.8,20.4c0,0,21.3,5.6,42.9,5.6c0,0,9.7,0,21.9,-1.1c0,0,12.3,-1.1,25.8,-4.1c0,0,13.4,-3,24.2,-6.7c0,0,10.8,-3.7,15.3,-7.5c0,0,4.4,-3.7,5.9,-7c0,0,1.5,-3.4,2.6,-8.6c0,0,1.1,-5.2,1.5,-15.3c0,0,0.4,-10.1,0.4,-27.2c0,0,0,-16.4,-0.7,-27.6c0,0,-0.8,-11.2,-3,-17.5c0,0,-2.3,-6.4,-5.6,-9.7c0,0,-3.4,-3.4,-9.3,-3.4c0,0,-6,0,-14.6,3.4c0,0,-8.5,3.3,-19.4,6.7c0,0,-10.8,3.3,-24.2,6.3c0,0,-13.4,3,-29,3c0,0,-18.7,0,-36.5,-7.5c0,0,-17.9,-7.6,-37.7,-24.9c0,0,-19.7,-17.3,-41.3,-45.9c0,0,-21.6,-28.6,-47.7,-70l0,-441.7c0,0,0,-5.9,-3,-10c0,0,-3,-4.1,-9.7,-7.1c0,0,-6.7,-2.9,-18.6,-4.4c0,0,-12,-1.5,-30.6,-1.5Z" 
	id="f0_b1"
	transform="scale(0.001,-0.001)" />

	<path d="M563.5,420.4c0,0,2.3,97.4,-42.9,152.9c0,0,-45.2,55.4,-134,55.4c0,0,-45.5,0,-79.9,-17.2c0,0,-34.3,-17.2,-57.5,-45.7c0,0,-23.1,-28.5,-35.8,-66.3c0,0,-12.7,-37.9,-14.2,-79.1ZM405.3,-13.6c0,0,-82.9,0,-145.2,23.1c0,0,-62.3,23.1,-104.9,68.6c0,0,-42.5,45.6,-64.1,114.2c0,0,-21.7,68.7,-21.7,159.8c0,0,0,86.5,22.4,155.6c0,0,22.4,69,64.6,117.2c0,0,42.1,48.1,101.8,73.9c0,0,59.7,25.7,133.6,25.7c0,0,79.1,0,134.7,-25.3c0,0,55.6,-25.4,91.5,-68.3c0,0,35.8,-42.9,52.6,-100.8c0,0,16.8,-57.8,16.8,-123.5l0,-22.4c0,0,0,-29.1,-14.6,-41.4c0,0,-14.6,-12.3,-33.2,-12.3l-440.4,0c0,0,0,-56.1,11.2,-100.9c0,0,11.2,-44.9,37.3,-77c0,0,26.2,-32.2,68,-49.4c0,0,41.8,-17.1,102.2,-17.1c0,0,47.8,0,85.1,7.8c0,0,37.3,7.9,64.6,17.6c0,0,27.2,9.7,44.8,17.5c0,0,17.5,7.9,26.5,7.9c0,0,5.2,0,9.3,-2.6c0,0,4.1,-2.6,6.3,-7.8c0,0,2.3,-5.2,3.4,-14.5c0,0,1.1,-9.3,1.1,-22.7c0,0,0,-9.7,-0.7,-16.8c0,0,-0.8,-7,-1.9,-12.6c0,0,-1.1,-5.6,-3.7,-10.1c0,0,-2.6,-4.4,-6.7,-8.5c0,0,-4.1,-4.1,-24.3,-13.5c0,0,-20.2,-9.3,-52.2,-18.3c0,0,-32.1,-9,-74.3,-16c0,0,-42.2,-7.1,-89.9,-7.1Z" 
	id="f0_7z"
	transform="scale(0.001,-0.001)" />

	<path d="M366.2,91.9c0,0,24.6,0,47.4,6.7c0,0,22.7,6.7,46.6,22.4c0,0,23.9,15.6,50,40.5c0,0,26.2,25,55.3,61.4l0,268.8c0,0,-50,62.1,-96.7,94.7c0,0,-46.6,32.5,-97.4,32.5c0,0,-47.1,0,-79.9,-22.3c0,0,-32.8,-22.4,-53.4,-59c0,0,-20.5,-36.6,-29.8,-82.9c0,0,-9.4,-46.3,-9.4,-94.1c0,0,0,-50.7,7.9,-99.2c0,0,7.8,-48.5,27.2,-86.2c0,0,19.4,-37.7,51.5,-60.5c0,0,32.1,-22.8,80.7,-22.8ZM344.6,-13.6c0,0,-73.9,0,-126.2,28.6c0,0,-52.2,28.8,-84.7,77.7c0,0,-32.5,48.9,-47.4,114.9c0,0,-14.9,66.1,-14.9,139.2c0,0,0,86.6,18.6,156.4c0,0,18.7,69.8,55.3,119.1c0,0,36.5,49.2,90.7,75.7c0,0,54.1,26.5,125,26.5c0,0,58.9,0,107.8,-25.7c0,0,48.9,-25.8,96.7,-75.8l0,389.6c0,0,0,5.2,2.6,10c0,0,2.6,4.9,10.1,7.5c0,0,7.4,2.6,19,4.5c0,0,11.6,1.8,29.5,1.8c0,0,18.6,0,30.6,-1.8c0,0,11.9,-1.9,18.6,-4.5c0,0,6.7,-2.6,10.1,-7.5c0,0,3.3,-4.8,3.3,-10l0,-994.4c0,0,0,-5.9,-2.6,-10.4c0,0,-2.6,-4.5,-8.9,-7.1c0,0,-6.4,-2.5,-16.8,-4c0,0,-10.5,-1.5,-25.4,-1.5c0,0,-15.6,0,-26.1,1.5c0,0,-10.4,1.5,-17.1,4c0,0,-6.8,2.7,-9.7,7.2c0,0,-3,4.5,-3,10.5l0,89.6c0,0,-53,-57.5,-110.1,-89.6c0,0,-57.1,-32,-125,-32Z" 
	id="f0_7v"
	transform="scale(0.001,-0.001)" />

	<path d="M145.2,-13.6c0,0,-20.9,0,-41.4,3.5c0,0,-20.5,3.4,-37.7,9.1c0,0,-17.2,5.6,-29.8,12.1c0,0,-12.7,6.5,-16.9,11c0,0,-4.1,4.5,-6.7,8.9c0,0,-2.6,4.5,-4.4,10.8c0,0,-1.9,6.3,-2.7,15.6c0,0,-0.7,9.3,-0.7,22.7c0,0,0,16.4,1.1,27.2c0,0,1.1,10.8,4.1,17.1c0,0,3,6.3,7.1,8.9c0,0,4.1,2.6,10.1,2.6c0,0,6,0,15.3,-5.6c0,0,9.3,-5.7,22.4,-12.5c0,0,13.1,-6.8,30.3,-12.4c0,0,17.1,-5.7,40.3,-5.7c0,0,25.4,0,43.3,6.4c0,0,18,6.3,29.9,23.5c0,0,11.9,17.2,17.9,47.4c0,0,6,30.2,6,78.7l0,691.1c0,0,0,5.2,3,9.7c0,0,3,4.5,10.4,7.5c0,0,7.5,2.9,19.8,4.4c0,0,12.3,1.6,31,1.6c0,0,17.9,0,30.5,-1.5c0,0,12.7,-1.6,19.8,-4.5c0,0,7.1,-3,10.5,-7.5c0,0,3.3,-4.5,3.3,-9.7L361,243c0,0,0,-57.4,-10.4,-105.2c0,0,-10.5,-47.8,-35.9,-81.3c0,0,-25.4,-33.6,-66.8,-51.9c0,0,-41.4,-18.2,-102.7,-18.2Z" 
	id="f0_1n"
	transform="scale(0.001,-0.001)" />

	<path d="M345.6,-4.8c0,0,-22.4,0,-37.3,1.5c0,0,-15,1.5,-24.3,4.4c0,0,-9.3,3,-14.5,8.2c0,0,-5.2,5.2,-8.2,12.7L33,659.8c0,0,-3,9,-4.8,15.7c0,0,-1.9,6.7,-2.3,10c0,0,-0.4,3.4,-0.4,5.7c0,0,0,5.9,3,10.4c0,0,3,4.5,10.1,7.1c0,0,7.1,2.6,18.6,3.3c0,0,11.6,0.8,28.8,0.8c0,0,21.6,0,34.6,-1.1c0,0,13.1,-1.2,20.2,-4.1c0,0,7.1,-3,10.4,-7.5c0,0,3.4,-4.5,6.4,-11.2L347.1,135.4l2.9,-9l2.3,9L539.5,688.9c0,0,1.5,6.7,5.2,11.2c0,0,3.8,4.5,10.9,7.5c0,0,7.1,2.9,19.4,4.1c0,0,12.3,1.1,32.4,1.1c0,0,17.2,0,28.4,-0.7c0,0,11.2,-0.8,17.5,-3.8c0,0,6.3,-3,8.9,-7.1c0,0,2.7,-4.1,2.7,-10c0,0,0,-3,-0.4,-6.4c0,0,-0.4,-3.3,-1.1,-7.1c0,0,-0.8,-3.7,-1.9,-8.2c0,0,-1.1,-4.5,-2.6,-9.7L429.9,22c0,0,-3,-8.2,-7.9,-13.5c0,0,-4.8,-5.2,-14.5,-8.1c0,0,-9.7,-2.9,-24.6,-4c0,0,-14.9,-1.2,-37.3,-1.2Z" 
	id="f0_ch"
	transform="scale(0.001,-0.001)" />

	<path d="M60.4,-209.1c0,0,-18.6,0,-30.9,2.6c0,0,-12.3,2.6,-19,7.4c0,0,-6.8,4.9,-8.3,12c0,0,-1.5,7.1,3,16.8L456.5,1067.2c0,0,3,9.7,7.9,15.3c0,0,4.8,5.6,11.9,9c0,0,7.1,3.3,18.3,4.4c0,0,11.2,1.2,26.8,1.2c0,0,18.7,0,30.6,-2.6c0,0,12,-2.7,18.7,-7.1c0,0,6.7,-4.5,8.2,-12c0,0,1.5,-7.4,-2.3,-17.1L125.3,-179.3c0,0,-3,-9.7,-7.8,-15.3c0,0,-4.9,-5.6,-12.3,-8.6c0,0,-7.5,-2.9,-18.3,-4.4c0,0,-10.8,-1.5,-26.5,-1.5Z" 
	id="f0_od"
	transform="scale(0.001,-0.001)" />

	<path d="M481.8,-11.6c0,0,-94,0,-169.7,31.2c0,0,-75.7,31.3,-129,92.4c0,0,-53.3,61.1,-82,151c0,0,-28.7,89.8,-28.7,206.9c0,0,0,120,30.9,213.9c0,0,30.9,93.9,86.8,159.2c0,0,56,65.2,133.9,99.5c0,0,77.9,34.3,172.6,34.3c0,0,41.7,0,81.2,-7.7c0,0,39.5,-7.8,73.1,-19.6c0,0,33.5,-11.8,59.6,-27.3c0,0,26.1,-15.4,36.2,-25.4c0,0,10.1,-9.9,13,-15.2c0,0,3,-5.2,4.9,-12.3c0,0,1.8,-7.1,3,-16.8c0,0,1.1,-9.7,1.1,-23.2c0,0,0,-15,-1.5,-25.4c0,0,-1.5,-10.5,-4.5,-17.6c0,0,-3,-7.1,-7.1,-10.4c0,0,-4.1,-3.4,-10,-3.4c0,0,-10.5,0,-29.1,14.5c0,0,-18.6,14.4,-48.1,31.9c0,0,-29.4,17.5,-71.5,32c0,0,-42.2,14.4,-101,14.4c0,0,-64.2,0,-116.7,-25.7c0,0,-52.5,-25.7,-89.8,-75.7c0,0,-37.3,-49.9,-57.8,-121.9c0,0,-20.5,-72,-20.5,-164.4c0,0,0,-91.8,19.8,-162.2c0,0,19.7,-70.5,56.6,-117.9c0,0,36.9,-47.3,90.6,-71.6c0,0,53.7,-24.2,121.6,-24.2c0,0,57.4,0,100.3,14.2c0,0,42.8,14.2,73,31.7c0,0,30.2,17.6,49.6,31.8c0,0,19.4,14.2,30.6,14.2c0,0,5.2,0,8.9,-2.2c0,0,3.8,-2.3,6,-8.6c0,0,2.2,-6.4,3.4,-17.5c0,0,1.1,-11.2,1.1,-28.4c0,0,0,-12,-0.8,-20.9c0,0,-0.7,-9,-2.6,-15.7c0,0,-1.8,-6.7,-4.8,-11.9c0,0,-3,-5.3,-10.5,-12.7c0,0,-7.4,-7.5,-31.3,-22.8c0,0,-23.9,-15.3,-59.3,-29.9C663.3,23,627.9,8.4,582,-1.6c0,0,-45.8,-10,-100.2,-10Z" 
	id="f0_j"
	transform="scale(0.001,-0.001)" />

	<path d="M380.4,81.2c0,0,-14.9,0,-25.7,1.8c0,0,-10.8,1.9,-17.1,4.9c0,0,-6.4,3,-9.4,7.1c0,0,-3,4.1,-3,10l0,271.4l-244.6,0c0,0,-6.7,0,-11.6,3c0,0,-4.8,3,-8.6,9.7c0,0,-3.7,6.7,-5.9,16.8c0,0,-2.3,10,-2.3,24.2c0,0,0,13.4,2.3,23.5c0,0,2.2,10,5.9,16.7c0,0,3.8,6.7,8.6,9.7c0,0,4.9,3,10.8,3l245.4,0l0,271.2c0,0,0,5.9,3,10.8c0,0,3,4.8,9.4,8.2c0,0,6.3,3.3,17.1,5.2c0,0,10.8,1.9,25.7,1.9c0,0,15.7,0,26.2,-1.9c0,0,10.4,-1.9,16.7,-5.2c0,0,6.4,-3.4,9.4,-8.2c0,0,3,-4.9,3,-10.8l0,-271.2l245.4,0c0,0,6,0,10.8,-3c0,0,4.8,-3,9,-9.7c0,0,4.1,-6.7,5.9,-16.7c0,0,1.9,-10.1,1.9,-23.5c0,0,0,-14.2,-2.2,-24.2c0,0,-2.3,-10.1,-6,-16.8c0,0,-3.8,-6.7,-9,-9.7c0,0,-5.2,-3,-11.2,-3l-244.6,0l0,-271.4c0,0,0,-5.9,-3,-10c0,0,-3,-4.1,-9.4,-7.1c0,0,-6.3,-3,-16.7,-4.9c0,0,-10.5,-1.8,-26.2,-1.8Z" 
	id="f0_u6"
	transform="scale(0.001,-0.001)" />

	<path d="M388.4,107.6c0,0,92.5,0,155.9,23.1c0,0,63.4,23.1,105.9,70.8c0,0,42.5,47.7,63.7,119.7c0,0,21.3,72,21.3,170.4c0,0,0,78.3,-19.4,145.8c0,0,-19.4,67.5,-60.8,116.7c0,0,-41.4,49.2,-104.7,76.8c0,0,-63.4,27.6,-163.4,27.6l-130.5,0l0,-750.9ZM175.8,0c0,0,-17.1,0,-32.4,11.6c0,0,-15.3,11.5,-15.3,40.6l0,860.6c0,0,0,29.1,15.3,40.7c0,0,15.3,11.6,32.4,11.6l218.6,0c0,0,125.3,0,211.8,-32.5c0,0,86.5,-32.4,145,-93.2c0,0,58.6,-60.8,88.8,-147.3c0,0,30.2,-86.5,30.2,-195.4c0,0,0,-125.3,-32,-218.9c0,0,-32.1,-93.6,-93.7,-155.1c0,0,-61.5,-61.6,-151,-92.1C593.5,30.6,504,0,380.2,0Z" 
	id="f0_p"
	transform="scale(0.001,-0.001)" />

	<path d="M366.8,-13.6c0,0,-72.4,0,-128.4,23.8c0,0,-56,23.8,-93.7,69.6c0,0,-37.7,45.9,-57.5,112.5c0,0,-19.7,66.8,-19.7,153.9c0,0,0,99.1,24.2,170.3c0,0,24.3,71.2,66.4,116.7c0,0,42.2,45.4,99.3,67.4c0,0,57.1,22,123.5,22c0,0,32.2,0,62.4,-6c0,0,30.2,-6,55.6,-15.6c0,0,25.4,-9.7,45.1,-22.4c0,0,19.8,-12.7,28.8,-21.7c0,0,8.9,-8.9,12.3,-14.1c0,0,3.4,-5.3,5.6,-12.3c0,0,2.2,-7.2,3,-16.1c0,0,0.7,-9,0.7,-22.4c0,0,0,-29.1,-6.7,-40.7c0,0,-6.7,-11.5,-16.4,-11.5c0,0,-11.2,0,-25.8,12.3c0,0,-14.5,12.3,-36.9,27.2c0,0,-22.4,15,-54.1,27.3c0,0,-31.8,12.3,-75.1,12.3c0,0,-88.8,0,-136.2,-68.1c0,0,-47.4,-68.2,-47.4,-197.9c0,0,0,-64.8,12.3,-113.6c0,0,12.3,-48.8,36.2,-81.6c0,0,23.9,-32.8,58.6,-48.8c0,0,34.7,-16,79.5,-16c0,0,42.6,0,74.7,13.4c0,0,32,13.5,55.6,29.5c0,0,23.5,16,39.5,29.1c0,0,16.1,13.1,25,13.1c0,0,5.3,0,9,-3c0,0,3.7,-3,6.3,-10.1c0,0,2.7,-7.1,3.8,-17.9c0,0,1.1,-10.8,1.1,-25.7c0,0,0,-12.7,-0.7,-22c0,0,-0.8,-9.4,-2.7,-15.7c0,0,-1.8,-6.3,-4.4,-11.2c0,0,-2.6,-4.8,-12,-14.1c0,0,-9.3,-9.4,-31.7,-23.2c0,0,-22.4,-13.8,-50.4,-24.6c0,0,-28,-10.7,-60.8,-17.4c0,0,-32.8,-6.7,-67.9,-6.7Z" 
	id="f0_7l"
	transform="scale(0.001,-0.001)" />

	<path d="M401.3,90c0,0,53.7,0,93.2,19.4c0,0,39.4,19.4,64.7,54.5c0,0,25.4,35.1,37.3,83.7c0,0,11.9,48.6,11.9,106.8c0,0,0,54.6,-10,103.1c0,0,-10.1,48.6,-33.2,85.2c0,0,-23.1,36.6,-62.6,57.9c0,0,-39.4,21.3,-98.3,21.3c0,0,-54.4,0,-93.5,-19.4c0,0,-39.1,-19.5,-64.4,-55c0,0,-25.3,-35.4,-37.6,-84c0,0,-12.3,-48.6,-12.3,-106.1c0,0,0,-55.3,10.1,-103.8c0,0,10,-48.6,33.5,-84.8c0,0,23.4,-36.2,62.9,-57.5c0,0,39.5,-21.3,98.3,-21.3ZM395.4,-13.6c0,0,-82.7,0,-144.2,24.5c0,0,-61.5,24.7,-102.5,71.7c0,0,-41,47,-61.1,114.2c0,0,-20.1,67.2,-20.1,152.3c0,0,0,82.1,21.2,151.1c0,0,21.2,69.1,64.1,119.1c0,0,42.8,50,106.9,77.6c0,0,64.1,27.6,149.9,27.6c0,0,82.7,0,144.2,-24.6c0,0,61.4,-24.6,102.4,-71.6c0,0,41,-47.1,61.5,-114.3c0,0,20.5,-67.1,20.5,-151.5c0,0,0,-82.1,-21.6,-151.1c0,0,-21.6,-69.1,-64.5,-119.1c0,0,-42.8,-50,-107.3,-78c0,0,-64.5,-27.9,-149.4,-27.9Z" 
	id="f0_am"
	transform="scale(0.001,-0.001)" />

	<path d="M189.3,-4.8c0,0,-17.9,0,-29.9,1.9c0,0,-11.9,1.9,-19,4.4c0,0,-7.1,2.6,-9.7,7c0,0,-2.6,4.5,-2.6,10.5l0,887.9c0,0,0,31.3,16.4,44.7c0,0,16.4,13.5,36.6,13.5l77.5,0c0,0,23.9,0,41.8,-4.5c0,0,17.9,-4.5,31.3,-14.2c0,0,13.5,-9.7,22.4,-24.6c0,0,9,-14.9,15.7,-35.1L649.2,187.6l3.8,0L943.7,884.5c0,0,8.3,22.4,17.9,38c0,0,9.7,15.7,21.3,25c0,0,11.6,9.3,25.7,13.4c0,0,14.2,4.2,32.9,4.2l81.3,0c0,0,11.2,0,21.2,-3.4c0,0,10.1,-3.4,17.2,-10.5c0,0,7.1,-7,11.6,-17.9c0,0,4.4,-10.8,4.4,-26.4l0,-887.9c0,0,0,-6,-2.9,-10.5c0,0,-3,-4.4,-10.5,-7c0,0,-7.5,-2.5,-19,-4.4c0,0,-11.6,-1.9,-30.2,-1.9c0,0,-17.2,0,-29.5,1.9c0,0,-12.3,1.9,-19.4,4.4c0,0,-7.1,2.6,-10.1,7c0,0,-2.9,4.5,-2.9,10.5l0,840.9l-1.5,0L707.4,15.2c0,0,-2.2,-5.2,-6.3,-8.9c0,0,-4.1,-3.7,-11.9,-6.3c0,0,-7.9,-2.5,-18.7,-3.6c0,0,-10.8,-1.2,-25.7,-1.2c0,0,-15.7,0,-26.9,1.5c0,0,-11.2,1.5,-18.6,4c0,0,-7.5,2.6,-11.6,6.3c0,0,-4.1,3.8,-5.6,8.2L253.4,859.9l-0.7,0L252.7,19c0,0,0,-6,-3,-10.5c0,0,-3,-4.4,-10.4,-7c0,0,-7.5,-2.5,-19.4,-4.4c0,0,-12,-1.9,-30.6,-1.9Z" 
	id="f0_1x"
	transform="scale(0.001,-0.001)" />

	<path d="M604.3,355.9L435.7,837l-0.8,0L268.6,355.9ZM86.5,-4.8c0,0,-21.6,0,-35.4,1.9c0,0,-13.8,1.9,-19.4,7c0,0,-5.6,5.2,-5.2,15.3c0,0,0.4,10,6.3,26.4L356.6,943.1c0,0,3,8.2,7.8,13.4c0,0,4.9,5.2,14.2,8.2c0,0,9.3,3,23.9,4.1c0,0,14.5,1.2,36.9,1.2c0,0,23.9,0,39.5,-1.2c0,0,15.7,-1.1,25.4,-4.1c0,0,9.7,-3,14.9,-8.6c0,0,5.2,-5.6,8.2,-13.8L851.2,45.1c0,0,5.9,-16.4,6.3,-26.5c0,0,0.4,-10.1,-5.6,-15.3c0,0,-6,-5.1,-19.7,-6.6c0,0,-13.9,-1.5,-37,-1.5c0,0,-23.1,0,-36.9,1.1c0,0,-13.8,1.2,-20.9,3.7c0,0,-7.1,2.6,-10.4,7c0,0,-3.4,4.5,-6.4,11.2l-82.8,235l-401.3,0L157.4,21.2c0,0,-2.2,-6.7,-6,-11.5c0,0,-3.7,-4.9,-10.8,-8.2c0,0,-7.1,-3.3,-20.1,-4.8c0,0,-13.1,-1.5,-34,-1.5Z" 
	id="f0_5"
	transform="scale(0.001,-0.001)" />

	<path d="M175.8,0c0,0,-17.1,0,-32.4,11.6c0,0,-15.3,11.5,-15.3,40.6l0,893.9c0,0,0,5.9,3,10.4c0,0,3,4.5,10.4,7.1c0,0,7.5,2.6,20.2,4.5c0,0,12.7,1.9,30.6,1.9c0,0,18.6,0,30.9,-1.9c0,0,12.3,-1.9,19.8,-4.5c0,0,7.4,-2.6,10.4,-7.1c0,0,3,-4.4,3,-10.4l0,-834.6l346.2,0c0,0,6.7,0,11.6,-3.4c0,0,4.8,-3.4,8.2,-9.7c0,0,3.3,-6.4,4.8,-16.8c0,0,1.5,-10.5,1.5,-25.5c0,0,0,-15,-1.5,-25.1c0,0,-1.5,-10.1,-4.8,-17.2c0,0,-3.4,-7.1,-8.2,-10.4c0,0,-4.9,-3.4,-11.6,-3.4Z" 
	id="f0_1r"
	transform="scale(0.001,-0.001)" />

	<path d="M441.5,105.6c0,0,44,0,76.9,10.4c0,0,32.8,10.5,57.8,31c0,0,25,20.5,39.2,51.1c0,0,14.2,30.6,14.2,70.9c0,0,0,43.3,-13.8,76.1c0,0,-13.8,32.9,-40.3,55.2c0,0,-26.5,22.4,-66.4,34c0,0,-40,11.6,-100.4,11.6l-153.8,0l0,-340.3ZM401,548.5c0,0,50,0,80.5,13.1c0,0,30.6,13,50.7,34.9c0,0,20.1,22,29.5,51.4c0,0,9.3,29.4,9.3,60.7c0,0,0,35,-9.7,63.3c0,0,-9.7,28.3,-30.6,48c0,0,-20.9,19.7,-54.4,30.1c0,0,-33.5,10.5,-88.7,10.5l-132.7,0l0,-312ZM175.8,0c0,0,-17.1,0,-32.4,11.6c0,0,-15.3,11.5,-15.3,40.6l0,860.6c0,0,0,29.1,15.3,40.7c0,0,15.3,11.6,32.4,11.6l219.3,0c0,0,86.4,0,141.6,-16.4c0,0,55.2,-16.4,92.1,-47.8c0,0,36.9,-31.3,55.6,-76.7c0,0,18.6,-45.5,18.6,-102.9c0,0,0,-34.3,-8.2,-65.6c0,0,-8.2,-31.3,-24.2,-57.8c0,0,-16.1,-26.4,-40.3,-47.3c0,0,-24.2,-20.9,-55.5,-34.3c0,0,39.6,-7.5,74,-27.2c0,0,34.3,-19.8,60.1,-50.4c0,0,25.8,-30.6,40.8,-71.6c0,0,14.9,-41.1,14.9,-90.3c0,0,0,-45.5,-11.5,-83.9c0,0,-11.6,-38.5,-32.5,-69c0,0,-20.9,-30.6,-50.4,-53.8c0,0,-29.5,-23.1,-66.4,-38.8c0,0,-36.9,-15.6,-79.1,-23.5C524.7,7.8,482.5,0,428.1,0Z" 
	id="f0_i"
	transform="scale(0.001,-0.001)" />

	<path d="M372.2,472.3c0,0,58.3,0,96.7,14.9c0,0,38.5,14.9,64.6,41.4c0,0,26.2,26.5,39.6,63.4c0,0,13.5,36.9,13.5,80.2c0,0,0,59,-22.1,98.5c0,0,-22,39.5,-54.5,58.9c0,0,-32.5,19.4,-67.2,24.6c0,0,-34.8,5.3,-67.6,5.3l-118.8,0l0,-387.2ZM192.3,-4.8c0,0,-18.7,0,-31,1.9c0,0,-12.3,1.9,-19.8,4.4c0,0,-7.4,2.6,-10.4,7c0,0,-3,4.5,-3,10.5l0,890.8c0,0,0,29.9,15.7,42.6c0,0,15.6,12.7,35.1,12.7l206.7,0c0,0,31.4,0,60.1,-2.6c0,0,28.8,-2.7,68,-11.2c0,0,39.2,-8.6,79.9,-32.1c0,0,40.6,-23.5,69,-57.9c0,0,28.4,-34.3,43.7,-79.4c0,0,15.3,-45.2,15.3,-99.6c0,0,0,-72.4,-23.9,-130.6c0,0,-23.9,-58.2,-68.3,-99.2c0,0,-44.5,-41.1,-109,-63.5c0,0,-64.6,-22.3,-154.2,-22.3l-109.8,0L256.4,19c0,0,0,-6,-3.4,-10.5c0,0,-3.3,-4.4,-10.4,-7c0,0,-7.1,-2.5,-19.4,-4.4c0,0,-12.3,-1.9,-30.9,-1.9Z" 
	id="f0_2g"
	transform="scale(0.001,-0.001)" />

	<path d="M192.3,-4.8c0,0,-17.9,0,-30.6,1.9c0,0,-12.7,1.9,-20.2,4.4c0,0,-7.4,2.6,-10.4,7c0,0,-3,4.5,-3,10.5l0,927.1c0,0,0,5.9,3.4,10.4c0,0,3.3,4.5,11.1,7.1c0,0,7.9,2.6,20.2,4.5c0,0,12.3,1.9,29.5,1.9c0,0,18.6,0,30.9,-1.9c0,0,12.3,-1.9,19.8,-4.5c0,0,7.4,-2.6,10.4,-7.1c0,0,3,-4.5,3,-10.4L256.4,19c0,0,0,-6,-3,-10.5c0,0,-3,-4.4,-10.4,-7c0,0,-7.5,-2.5,-19.8,-4.4c0,0,-12.3,-1.9,-30.9,-1.9Z" 
	id="f0_1c"
	transform="scale(0.001,-0.001)" />

	<path d="M175.6,-4.8c0,0,-17.9,0,-29.9,1.5c0,0,-11.9,1.5,-19,4.4c0,0,-7.1,3,-9.7,7.1c0,0,-2.6,4.1,-2.6,10l0,671.5c0,0,0,5.9,2.2,10c0,0,2.3,4.1,9,7.5c0,0,6.7,3.3,17.1,4.5c0,0,10.5,1.1,27.6,1.1c0,0,16.5,0,27.3,-1.1c0,0,10.8,-1.1,16.7,-4.5c0,0,6,-3.4,8.6,-7.4c0,0,2.6,-4.2,2.6,-10.1l0,-88.8c0,0,56.8,64.1,110.2,93.9c0,0,53.5,29.7,108,29.7c0,0,41.8,0,75.1,-9.8c0,0,33.2,-9.8,58.7,-27.5c0,0,25.4,-17.7,43.3,-42.1c0,0,17.9,-24.5,29.9,-54.7c0,0,33.5,36.9,63.7,62.6c0,0,30.2,25.6,58.2,41.4c0,0,28,15.8,54.4,23c0,0,26.5,7.1,53.3,7.1c0,0,64.9,0,108.9,-22.8c0,0,44,-22.8,71.2,-60.9c0,0,27.2,-38.1,38.8,-89.3c0,0,11.6,-51.2,11.6,-108l0,-425.2c0,0,0,-6,-3,-10.1c0,0,-3,-4.1,-9.7,-7.1c0,0,-6.7,-2.9,-18.7,-4.4c0,0,-11.9,-1.5,-29.8,-1.5c0,0,-18.7,0,-30.6,1.5c0,0,-11.9,1.5,-19,4.4c0,0,-7.1,3,-10.1,7.1c0,0,-3,4.1,-3,10.1l0,409c0,0,0,42.6,-7.4,77.8c0,0,-7.5,35.1,-23.9,60.5c0,0,-16.4,25.4,-41.7,38.9c0,0,-25.4,13.5,-59.7,13.5c0,0,-42.5,0,-85.3,-32.9c0,0,-42.9,-32.9,-94.3,-96.5l0,-470.3c0,0,0,-6,-3,-10.1c0,0,-3,-4.1,-10.1,-7.1c0,0,-7.1,-2.9,-19,-4.4c0,0,-12,-1.5,-29.9,-1.5c0,0,-17.1,0,-29.4,1.5c0,0,-12.3,1.5,-19.4,4.4c0,0,-7.1,3,-9.7,7.1c0,0,-2.6,4.1,-2.6,10.1l0,409c0,0,0,42.6,-8.3,77.8c0,0,-8.2,35.1,-24.6,60.5c0,0,-16.5,25.4,-41.5,38.9c0,0,-25.1,13.5,-59.5,13.5c0,0,-42.6,0,-85.9,-32.9c0,0,-43.4,-32.9,-94.2,-96.5l0,-470.3c0,0,0,-6,-3,-10.1c0,0,-3,-4.1,-9.7,-7.1c0,0,-6.7,-2.9,-18.6,-4.4c0,0,-12,-1.5,-30.6,-1.5Z" 
	id="f0_ae"
	transform="scale(0.001,-0.001)" />

	<path d="M346.4,-177.8c0,0,55.8,0,93.4,10.7c0,0,37.6,10.8,60.7,28.6c0,0,23.1,17.9,33.1,40.9c0,0,10.1,23,10.1,48.3c0,0,0,43.1,-35.4,66.4c0,0,-35.4,23.4,-95.6,24.9L239.3,47.9c0,0,-23.9,-18.6,-39.1,-35.3c0,0,-15.3,-16.6,-24.2,-31.8c0,0,-9,-15.2,-12.3,-30.1c0,0,-3.3,-14.9,-3.3,-30.5c0,0,0,-48.3,49.1,-73.2c0,0,49.1,-24.8,136.9,-24.8Zm-6.7,513.2c0,0,36.5,0,63.3,11.6c0,0,26.9,11.6,44.4,32.1c0,0,17.5,20.6,26.1,47.6c0,0,8.6,26.9,8.6,56.1c0,0,0,68.8,-37.7,107.4c0,0,-37.6,38.5,-107,38.5c0,0,-35.8,0,-62.2,-11.9c0,0,-26.5,-12,-44,-33c0,0,-17.5,-20.9,-26.1,-48.3c0,0,-8.6,-27.3,-8.6,-57.2c0,0,0,-66.6,37.7,-104.8c0,0,37.6,-38.1,105.5,-38.1Zm0.6,-607.1c0,0,-81.3,0,-138.3,13.8c0,0,-57,13.8,-93.6,37.6c0,0,-36.5,23.9,-52.9,57.1c0,0,-16.4,33.2,-16.4,72c0,0,0,24.6,6,47.8c0,0,5.9,23.1,18.2,43.9c0,0,12.4,20.8,30.6,39.9c0,0,18.3,19,42.2,37.6c0,0,-36.5,18.6,-54,46.9c0,0,-17.6,28.3,-17.6,61c0,0,0,45.4,18.6,81.1c0,0,18.6,35.7,46.1,64c0,0,-23.1,27.6,-36.6,62.4c0,0,-13.4,34.7,-13.4,84c0,0,0,57.6,19.4,103.2c0,0,19.4,45.6,53.7,76.9c0,0,34.3,31.4,82.5,48.3c0,0,48.1,16.8,104.8,16.8c0,0,30.6,0,57.1,-3.4c0,0,26.5,-3.4,49.6,-9.3l203,0c0,0,12.7,0,19,-12.3c0,0,6.4,-12.3,6.4,-37.5c0,0,0,-26,-7.1,-37.5c0,0,-7.1,-11.5,-18.2,-11.5l-96.1,0c0,0,26.1,-27,36.6,-59.7c0,0,10.5,-32.7,10.5,-68c0,0,0,-58.3,-18.7,-103.1c0,0,-18.7,-44.8,-53.4,-75.9c0,0,-34.7,-31,-82.5,-47.4c0,0,-47.8,-16.5,-106,-16.5c0,0,-41.1,0,-78.1,10.9c0,0,-36.9,10.8,-57.1,27.3c0,0,-13.4,-13.5,-22,-30.6c0,0,-8.6,-17.2,-8.6,-39.5c0,0,0,-26.1,24.3,-43.3c0,0,24.2,-17.2,64.4,-18.6L438,139.2c0,0,49.9,-1.5,91.7,-13.8c0,0,41.7,-12.3,72.3,-35c0,0,30.5,-22.7,47.7,-55.8c0,0,17.1,-33.1,17.1,-77c0,0,0,-46.1,-19.3,-87.8c0,0,-19.4,-41.7,-59.3,-73.4c0,0,-39.9,-31.6,-101.8,-49.9c0,0,-61.9,-18.2,-146.1,-18.2Z" 
	id="f0_9d"
	transform="scale(0.001,-0.001)" />

	<path d="M469.2,365.7L500.6,614l-208.2,0L262.6,365.7ZM164.1,-4.8c0,0,-17.9,0,-29.1,1.1c0,0,-11.2,1.2,-17.1,3.7c0,0,-6,2.6,-8.2,6.6c0,0,-2.3,4.1,-1.5,9.4l30.6,254.8l-86.6,0c0,0,-11.2,0,-18.3,10.9c0,0,-7,10.8,-7,36.2c0,0,0,12.7,2.2,21.6c0,0,2.2,9,5.2,14.6c0,0,3,5.6,7.5,8.6c0,0,4.4,3,10.4,3l100,0L182.8,614l-90.3,0c0,0,-11.2,0,-18.3,11.2c0,0,-7.1,11.2,-7.1,35.1c0,0,0,26.2,7.1,37.4c0,0,7.1,11.2,18.3,11.2l101.5,0l30.5,239.4c0,0,0.8,5.2,3.4,9.3c0,0,2.6,4.1,9,6.7c0,0,6.3,2.7,17.5,4.2c0,0,11.2,1.5,28.3,1.5c0,0,17.9,0,28.4,-1.5c0,0,10.4,-1.5,16,-4.2c0,0,5.6,-2.6,7.1,-6.7c0,0,1.5,-4.1,1.5,-8.5L304.4,708.9l207.3,0l29.1,239.4c0,0,0.8,5.2,3.8,9.3c0,0,3,4.1,8.9,6.7c0,0,6,2.7,17.2,4.2c0,0,11.2,1.5,29.1,1.5c0,0,17.1,0,27.9,-1.5c0,0,10.9,-1.5,16.1,-4.2c0,0,5.2,-2.6,7.1,-6.7c0,0,1.8,-4.1,1.1,-8.5L622.2,708.9l85.7,0c0,0,11.2,0,18.3,-11.6c0,0,7.1,-11.6,7.1,-36.2c0,0,0,-12.7,-1.9,-21.7c0,0,-1.8,-8.9,-5.2,-14.5c0,0,-3.3,-5.6,-8.2,-8.2c0,0,-4.8,-2.7,-10.1,-2.7l-97.7,0L580.4,365.7l86.5,0c0,0,11.2,0,18.3,-11.2c0,0,7.1,-11.2,7.1,-36.6c0,0,0,-12.7,-2.2,-21.6c0,0,-2.3,-9,-5.3,-14.6c0,0,-3,-5.6,-7.8,-8.2c0,0,-4.9,-2.7,-10.1,-2.7l-99.2,0L536.4,16c0,0,-0.8,-5.3,-3,-9.4c0,0,-2.3,-4,-8.2,-6.6c0,0,-6,-2.5,-16.4,-3.7c0,0,-10.5,-1.1,-27.6,-1.1c0,0,-17.2,0,-28.4,1.1c0,0,-11.2,1.2,-17.1,3.7c0,0,-6,2.6,-8.2,6.6c0,0,-2.3,4.1,-1.5,9.4l31.3,254.8l-207.4,0L218.6,16c0,0,-1.5,-5.3,-3.4,-9.4c0,0,-1.8,-4,-7.4,-6.6c0,0,-5.6,-2.5,-16.1,-3.7c0,0,-10.4,-1.1,-27.6,-1.1Z" 
	id="f0_qg"
	transform="scale(0.001,-0.001)" />

	<path d="M160.8,0c0,0,-5.2,0,-9.7,2.6c0,0,-4.5,2.6,-8.6,8.6c0,0,-4.1,5.9,-6.3,15.6c0,0,-2.2,9.7,-2.2,23.8c0,0,0,13.4,2.2,23c0,0,2.2,9.7,5.6,16.1c0,0,3.3,6.3,8.2,9.6c0,0,4.8,3.4,10.8,3.4l201,0l0,734.3L175.5,725.5c0,0,-14.2,-7.4,-22.7,-8.9c0,0,-1.3,-0.2,-3.1,-0.2c-3,0,-7.5,0.5,-10.7,3.5c0,0,-5.2,4.9,-7.1,16.1c0,0,-1.8,11.2,-1.8,28.4c0,0,0,12.6,1.1,21.6c0,0,1.1,9,3.3,14.9c0,0,2.3,6,6.4,10.5c0,0,4.1,4.5,10.8,9l222,142.5c0,0,3,2.3,7.5,3.8c0,0,4.4,1.5,11.1,3c0,0,6.8,1.4,15.7,1.8c0,0,9,0.4,22.4,0.4c0,0,17.9,0,29.8,-1.5c0,0,12,-1.5,18.7,-4.1c0,0,6.7,-2.6,8.9,-6.7c0,0,2.3,-4.1,2.3,-8.6l0,-848.3l174.5,0c0,0,6,0,11.2,-3.4c0,0,5.3,-3.3,8.6,-9.6c0,0,3.4,-6.4,5.2,-16c0,0,1.9,-9.7,1.9,-23.1c0,0,0,-14.1,-2.2,-23.8c0,0,-2.3,-9.7,-6,-15.6c0,0,-3.7,-6,-8.6,-8.6c0,0,-4.8,-2.6,-10,-2.6Z" 
	id="f0_ry"
	transform="scale(0.001,-0.001)" />

	<path d="M127.6,0c0,0,-10.4,0,-18.3,2.6c0,0,-7.8,2.6,-13.4,8.6c0,0,-5.6,5.9,-8.2,17c0,0,-2.6,11.2,-2.6,27.6c0,0,0,14.9,1.1,26c0,0,1.1,11.2,4.8,19.7c0,0,3.8,8.6,9.4,17.1c0,0,5.6,8.6,14.5,18.3L302.2,335.7c0,0,64.9,68.6,104,123.1c0,0,39.2,54.5,60.5,99.3c0,0,21.2,44.8,27.9,81.3c0,0,6.8,36.6,6.8,68.7c0,0,0,32.1,-10.5,60.8c0,0,-10.5,28.8,-30.2,50.4c0,0,-19.8,21.7,-49.7,34.3c0,0,-29.8,12.7,-68.7,12.7c0,0,-45.5,0,-81.7,-12.6c0,0,-36.2,-12.6,-63.5,-27.5c0,0,-27.2,-14.8,-45.5,-27.4c0,0,-18.3,-12.7,-27.3,-12.7c0,0,-5.2,0,-9.3,3c0,0,-4.1,3,-6.7,9.7c0,0,-2.6,6.7,-4.1,17.9c0,0,-1.5,11.1,-1.5,26.8c0,0,0,11.1,0.7,19.3c0,0,0.8,8.2,2.6,14.2c0,0,1.9,5.9,4.9,11.1c0,0,3,5.3,11.9,13.1c0,0,9,7.8,31,21.2c0,0,22,13.4,55.2,26.4c0,0,33.2,13.1,73.2,22c0,0,39.9,8.9,84,8.9c0,0,70.1,0,122.7,-19.7c0,0,52.7,-19.8,87.4,-54.1c0,0,34.7,-34.4,51.9,-79.9c0,0,17.1,-45.5,17.1,-97c0,0,0,-46.3,-8.2,-92.2c0,0,-8.2,-45.9,-34.7,-99.3c0,0,-26.5,-53.4,-76.4,-118.7c0,0,-50,-65.3,-132.8,-150.4L240.2,108.5l420,0c0,0,6,0,11.6,-3.3c0,0,5.6,-3.4,9.7,-10c0,0,4.1,-6.7,6,-16.8c0,0,1.8,-10,1.8,-23.4c0,0,0,-13.4,-1.8,-23.8c0,0,-1.9,-10.4,-5.3,-17.4c0,0,-3.3,-7.1,-8.9,-10.5C673.3,3.3,667.7,0,661,0Z" 
	id="f0_rz"
	transform="scale(0.001,-0.001)" />

	<path d="M338.8,-13.6c0,0,-52.2,0,-89.5,13.7c0,0,-37.2,13.8,-61.1,41.9c0,0,-23.8,28,-34.6,70.9c0,0,-10.8,43,-10.8,101.3l0,393l-93.8,0c0,0,-11.2,0,-17.8,12c0,0,-6.7,12,-6.7,39c0,0,0,14.2,1.8,23.9c0,0,1.9,9.8,4.9,16.1c0,0,2.9,6.4,7.8,9c0,0,4.8,2.7,10.7,2.7l93.1,0l0,159.9c0,0,0,5.2,2.6,9.7c0,0,2.6,4.5,9.7,7.8c0,0,7.1,3.4,19,4.9c0,0,11.9,1.5,29.8,1.5c0,0,18.7,0,30.6,-1.5c0,0,11.9,-1.5,18.7,-4.9c0,0,6.7,-3.3,9.7,-7.8c0,0,2.9,-4.5,2.9,-9.7l0,-159.9l172.1,0c0,0,6,0,10.4,-2.7c0,0,4.5,-2.6,7.8,-9c0,0,3.4,-6.3,4.9,-16.1c0,0,1.5,-9.7,1.5,-23.9c0,0,0,-27,-6.7,-39c0,0,-6.7,-12,-17.9,-12l-172.1,0l0,-374.9c0,0,0,-69.4,20.5,-104.9c0,0,20.5,-35.5,73.4,-35.5c0,0,17.1,0,30.5,3.4c0,0,13.4,3.3,23.9,7.1c0,0,10.4,3.7,17.8,7.1c0,0,7.5,3.3,13.4,3.3c0,0,3.8,0,7.1,-1.9c0,0,3.4,-1.8,5.2,-7c0,0,1.9,-5.3,3.4,-14.2c0,0,1.5,-9,1.5,-22.5c0,0,0,-21.7,-3,-34.5c0,0,-3,-12.7,-8.9,-18.7c0,0,-6,-6,-17.9,-11.2c0,0,-11.9,-5.2,-27.2,-8.5c0,0,-15.3,-3.4,-32.4,-5.6c0,0,-17.2,-2.3,-34.3,-2.3Z" 
	id="f0_bf"
	transform="scale(0.001,-0.001)" />

	<path d="M175.6,-4.8c0,0,-17.9,0,-29.9,1.5c0,0,-11.9,1.5,-19,4.4c0,0,-7.1,3,-9.7,7.1c0,0,-2.6,4.1,-2.6,10l0,671.5c0,0,0,5.2,2.6,9.7c0,0,2.6,4.4,9.7,7.4c0,0,7.1,3,19,4.5c0,0,12,1.5,29.9,1.5c0,0,18.6,0,30.5,-1.5c0,0,12,-1.5,18.7,-4.5c0,0,6.7,-3,9.7,-7.4c0,0,3,-4.5,3,-9.7l0,-671.5c0,0,0,-5.9,-3,-10c0,0,-3,-4.1,-9.7,-7.1c0,0,-6.7,-2.9,-18.6,-4.4c0,0,-12,-1.5,-30.6,-1.5Zm-0.5,846.7c0,0,-43.3,0,-59.3,15.2c0,0,-16.1,15.3,-16.1,57.8c0,0,0,43.3,16.5,58.9c0,0,16.4,15.7,60.4,15.7c0,0,43.2,0,59.3,-15.3c0,0,16,-15.3,16,-57.8c0,0,0,-43.2,-16.4,-58.9c0,0,-16.4,-15.6,-60.4,-15.6Z" 
	id="f0_9q"
	transform="scale(0.001,-0.001)" />

	<path d="M175.6,-4.8c0,0,-17.9,0,-29.9,1.5c0,0,-11.9,1.5,-19,4.4c0,0,-7.1,3,-9.7,7.1c0,0,-2.6,4.1,-2.6,10l0,671.5c0,0,0,5.9,2.2,10c0,0,2.3,4.1,9,7.5c0,0,6.7,3.3,17.1,4.5c0,0,10.5,1.1,27.6,1.1c0,0,16.5,0,27.3,-1.1c0,0,10.8,-1.1,16.7,-4.5c0,0,6,-3.4,8.6,-7.4c0,0,2.6,-4.2,2.6,-10.1l0,-88.8c0,0,56.7,64.1,113,93.9c0,0,56.3,29.7,113.7,29.7c0,0,67.1,0,112.9,-22.8c0,0,45.9,-22.8,74.2,-60.9c0,0,28.3,-38.1,40.7,-89.3c0,0,12.3,-51.2,12.3,-122.9l0,-410.3c0,0,0,-6,-3,-10.1c0,0,-3,-4.1,-9.7,-7.1c0,0,-6.7,-2.9,-18.7,-4.4c0,0,-11.9,-1.5,-29.8,-1.5c0,0,-18.7,0,-30.6,1.5c0,0,-11.9,1.5,-18.6,4.4c0,0,-6.8,3,-9.7,7.1c0,0,-3,4.1,-3,10.1l0,394c0,0,0,57.6,-9,92.8c0,0,-8.9,35.1,-26.1,60.5c0,0,-17.1,25.4,-44.3,38.9c0,0,-27.2,13.5,-63,13.5c0,0,-46.2,0,-92.4,-32.9c0,0,-46.2,-32.9,-96.9,-96.5l0,-470.3c0,0,0,-6,-3,-10.1c0,0,-3,-4.1,-9.7,-7.1c0,0,-6.7,-2.9,-18.6,-4.4c0,0,-12,-1.5,-30.6,-1.5Z" 
	id="f0_af"
	transform="scale(0.001,-0.001)" />

	<path d="M377.9,-4.8c0,0,-28.3,0,-47.3,2.3c0,0,-19,2.2,-30.1,5.8c0,0,-11.2,3.7,-16,9.7c0,0,-4.9,6,-4.9,13.4l0,778.3l-241.7,0c0,0,-7.5,0,-12.7,4.5c0,0,-5.2,4.4,-8.9,13.8c0,0,-3.8,9.3,-5.6,24.6c0,0,-1.9,15.3,-1.9,36.9c0,0,0,22.4,1.9,38c0,0,1.8,15.7,5.6,25c0,0,3.7,9.3,8.9,13.5c0,0,5.2,4.1,12.7,4.1l680,0c0,0,6.7,0,12.3,-4.1c0,0,5.6,-4.2,9.4,-13.5c0,0,3.7,-9.3,5.6,-25c0,0,1.8,-15.6,1.8,-38c0,0,0,-21.6,-1.8,-36.9c0,0,-1.9,-15.3,-5.6,-24.6c0,0,-3.8,-9.4,-9.4,-13.8c0,0,-5.6,-4.5,-12.3,-4.5l-241.7,0l0,-778.3c0,0,0,-7.4,-4.9,-13.4c0,0,-4.8,-6,-16,-9.7c0,0,-11.1,-3.6,-30.1,-5.8c0,0,-19,-2.3,-47.3,-2.3Z" 
	id="f1_2t"
	transform="scale(0.001,-0.001)" />

	<path d="M187.7,-4.8c0,0,-27.5,0,-45.4,1.9c0,0,-17.9,1.9,-28.7,5.5c0,0,-10.8,3.7,-15.3,9.3c0,0,-4.4,5.6,-4.4,13.1l0,665.8c0,0,0,7.4,3.7,13c0,0,3.7,5.6,13.4,9.4c0,0,9.7,3.7,24.9,5.5c0,0,15.3,1.9,38.4,1.9c0,0,23.9,0,39.5,-1.8c0,0,15.6,-1.9,24.2,-5.6c0,0,8.6,-3.8,12.3,-9.4c0,0,3.7,-5.6,3.7,-13l0,-82.9c0,0,26.1,37.3,49.3,61.6c0,0,23.1,24.3,44,38.4c0,0,20.9,14.2,41.8,19.8c0,0,20.9,5.6,41.8,5.6c0,0,9.7,0,20.8,-1.1c0,0,11.2,-1.1,23.2,-3.7c0,0,11.9,-2.6,20.9,-6c0,0,8.9,-3.3,13,-7.1c0,0,4.1,-3.7,6,-8.2c0,0,1.9,-4.5,3.3,-12.3c0,0,1.5,-7.8,2.3,-23.5c0,0,0.8,-15.6,0.8,-42.5c0,0,0,-26.8,-1.5,-44c0,0,-1.5,-17.1,-4.5,-26.8c0,0,-3,-9.7,-7.9,-13.4c0,0,-4.8,-3.8,-12.3,-3.8c0,0,-5.9,0,-13.4,2.6c0,0,-7.5,2.7,-16.8,5.6c0,0,-9.3,3,-20.5,5.6c0,0,-11.2,2.6,-24.6,2.6c0,0,-15.7,0,-31.4,-6.3c0,0,-15.7,-6.4,-32.4,-19.8c0,0,-16.8,-13.5,-35.1,-35.9c0,0,-18.3,-22.4,-39.2,-55.3l0,-415c0,0,0,-7.5,-4.5,-13.1c0,0,-4.5,-5.6,-15.3,-9.3c0,0,-10.8,-3.6,-28.6,-5.5c0,0,-17.9,-1.9,-45.5,-1.9Z" 
	id="f1_b1"
	transform="scale(0.001,-0.001)" />

	<path d="M336.7,115.4c0,0,39.6,0,72.9,20.1c0,0,33.2,20.2,67.6,59l0,113.5l-71.7,0c0,0,-45.6,0,-77.7,-6.7c0,0,-32.2,-6.7,-52.3,-20.2c0,0,-20.2,-13.4,-29.5,-32.5c0,0,-9.4,-19,-9.4,-43.6c0,0,0,-41.8,26.5,-65.7c0,0,26.6,-23.9,73.6,-23.9ZM295.5,-17.5c0,0,-53,0,-97.4,13.8c0,0,-44.5,13.8,-76.9,41c0,0,-32.5,27.3,-50.5,67.6c0,0,-17.9,40.4,-17.9,94.2c0,0,0,58.3,22.8,101.3c0,0,22.8,43,68,71c0,0,45.2,28,112.4,41.5c0,0,67.3,13.4,156.2,13.4l65,0l0,40.1c0,0,0,31.3,-6.4,54.7c0,0,-6.4,23.4,-20.9,39c0,0,-14.6,15.6,-38.9,23.1c0,0,-24.3,7.4,-60.2,7.4c0,0,-47.2,0,-84.2,-10.5c0,0,-37,-10.5,-65.4,-23.2c0,0,-28.5,-12.8,-47.5,-23.3c0,0,-19.1,-10.5,-31.1,-10.5c0,0,-8.2,0,-14.5,5.2c0,0,-6.4,5.2,-10.5,14.9c0,0,-4.1,9.7,-6.4,23.8c0,0,-2.2,14.2,-2.2,31.3c0,0,0,23.1,3.7,36.5c0,0,3.7,13.4,14.2,24.2c0,0,10.4,10.8,36.6,24c0,0,26.1,13.3,61.2,24.6c0,0,35.1,11.3,76.6,18.5c0,0,41.4,7.2,85.4,7.2c0,0,78.5,0,134.1,-15.3c0,0,55.6,-15.3,91.5,-47c0,0,35.8,-31.7,52.2,-81.7c0,0,16.5,-50,16.5,-118.7L661,22.7c0,0,0,-10.4,-7.5,-16.4c0,0,-7.4,-6,-23.4,-8.5c0,0,-16,-2.6,-47.3,-2.6c0,0,-33.4,0,-48.7,2.6c0,0,-15.3,2.5,-21.6,8.5c0,0,-6.3,6,-6.3,16.4l0,53c0,0,-41.1,-44,-93.8,-68.7c0,0,-52.6,-24.5,-116.9,-24.5Z" 
	id="f1_77"
	transform="scale(0.001,-0.001)" />

	<path d="M187.7,-4.8c0,0,-27.5,0,-45.4,1.9c0,0,-17.9,1.9,-28.7,5.5c0,0,-10.8,3.7,-15.3,9.3c0,0,-4.4,5.6,-4.4,13.1l0,665.8c0,0,0,7.4,3.7,13c0,0,3.7,5.6,13.4,9.4c0,0,9.7,3.7,24.9,5.5c0,0,15.3,1.9,38.4,1.9c0,0,23.9,0,39.5,-1.8c0,0,15.6,-1.9,24.2,-5.6c0,0,8.6,-3.8,12.3,-9.4c0,0,3.7,-5.6,3.7,-13l0,-76.9c0,0,55.3,59.7,112.3,89.6c0,0,57.1,29.8,119.1,29.8c0,0,67.9,0,114.5,-22.4c0,0,46.7,-22.4,75.4,-60.8c0,0,28.7,-38.4,41.4,-89.9c0,0,12.7,-51.5,12.7,-124L729.4,25c0,0,0,-7.5,-4.5,-13.1c0,0,-4.5,-5.6,-14.9,-9.3c0,0,-10.5,-3.6,-28.8,-5.5c0,0,-18.3,-1.9,-45.3,-1.9c0,0,-27.6,0,-46,1.9c0,0,-18.3,1.9,-28.8,5.5c0,0,-10.4,3.7,-14.9,9.3c0,0,-4.5,5.6,-4.5,13.1l0,380c0,0,0,48.6,-7.1,76.2c0,0,-7.1,27.6,-20.5,47.4c0,0,-13.4,19.8,-34.6,30.6c0,0,-21.3,10.9,-49.6,10.9c0,0,-35.8,0,-72.3,-26.2c0,0,-36.5,-26.1,-76,-76.2L281.6,25c0,0,0,-7.5,-4.5,-13.1c0,0,-4.5,-5.6,-15.3,-9.3c0,0,-10.8,-3.6,-28.6,-5.5c0,0,-17.9,-1.9,-45.5,-1.9Z" 
	id="f1_af"
	transform="scale(0.001,-0.001)" />

	<path d="M275,-17.5c0,0,-37.3,0,-71.3,5.7c0,0,-34,5.6,-60.8,14.2c0,0,-26.9,8.6,-44.8,17.7c0,0,-18,9,-26.2,17c0,0,-8.2,7.9,-12.7,24.7c0,0,-4.4,16.7,-4.4,49.5c0,0,0,21.6,1.5,34.7c0,0,1.5,13,4.4,20.8c0,0,3,7.9,7.5,10.5c0,0,4.5,2.6,11.2,2.6c0,0,8.2,0,24.3,-9.3c0,0,16,-9.4,39.9,-20.6c0,0,23.9,-11.3,55.7,-21c0,0,31.7,-9.7,72,-9.7c0,0,25.4,0,45.2,5.2c0,0,19.8,5.2,34.4,14.9c0,0,14.5,9.6,22,24.5c0,0,7.5,14.9,7.5,34.2c0,0,0,22.4,-13.8,38.5c0,0,-13.9,16,-36.6,28c0,0,-22.8,11.9,-51.5,22.3c0,0,-28.8,10.5,-59,23.2c0,0,-30.2,12.7,-59,29.1c0,0,-28.7,16.4,-51.5,40.3c0,0,-22.7,23.9,-36.5,57.5c0,0,-13.8,33.6,-13.8,80.6c0,0,0,47.8,18.6,87.7c0,0,18.7,39.9,53.8,68.3c0,0,35.1,28.4,85.5,44c0,0,50.4,15.7,113.1,15.7c0,0,31.3,0,60.8,-4.4c0,0,29.5,-4.5,53.4,-11.1c0,0,23.9,-6.7,40.3,-14.5c0,0,16.5,-7.7,23.5,-13.3c0,0,7.1,-5.6,10.1,-11.2c0,0,3,-5.6,4.5,-13.4c0,0,1.5,-7.8,2.6,-19.4c0,0,1.1,-11.6,1.1,-28.8c0,0,0,-20.2,-1.1,-32.9c0,0,-1.1,-12.7,-3.7,-20.1c0,0,-2.6,-7.5,-7.1,-10.1c0,0,-4.5,-2.6,-10.5,-2.6c0,0,-6.7,0,-20.9,7.7c0,0,-14.1,7.8,-35.4,16.7c0,0,-21.3,8.9,-49.3,16.7c0,0,-28,7.8,-63.8,7.8c0,0,-25.4,0,-44.1,-5.3c0,0,-18.6,-5.2,-30.6,-14.9c0,0,-11.9,-9.7,-17.9,-22.7c0,0,-6,-13,-6,-27.9c0,0,0,-23.2,14.2,-38.9c0,0,14.2,-15.6,37.3,-27.6c0,0,23.2,-11.9,52.6,-22.4c0,0,29.5,-10.4,59.7,-22.7c0,0,30.2,-12.4,59.7,-28.8c0,0,29.5,-16.4,52.6,-40.3c0,0,23.1,-23.9,37.3,-57.1c0,0,14.2,-33.2,14.2,-78.8c0,0,0,-56.7,-21.3,-100c0,0,-21.3,-43.3,-60.1,-72.4c0,0,-38.8,-29.1,-91.8,-43.5c0,0,-53,-14.6,-115,-14.6Z" 
	id="f1_b5"
	transform="scale(0.001,-0.001)" />

	<path d="M187.7,-4.8c0,0,-27.5,0,-45.4,1.9c0,0,-17.9,1.9,-28.7,5.5c0,0,-10.8,3.7,-15.3,9.3c0,0,-4.4,5.6,-4.4,13l0,981.4c0,0,0,7.5,4.4,13.4c0,0,4.5,6,15.3,10.1c0,0,10.8,4.1,28.7,6.4c0,0,17.9,2.2,45.4,2.2c0,0,27.6,0,45.5,-2.2c0,0,17.8,-2.3,28.6,-6.4c0,0,10.8,-4.1,15.3,-10.1c0,0,4.5,-5.9,4.5,-13.4l0,-981.4c0,0,0,-7.4,-4.5,-13c0,0,-4.5,-5.6,-15.3,-9.3c0,0,-10.8,-3.6,-28.6,-5.5c0,0,-17.9,-1.9,-45.5,-1.9Z" 
	id="f1_a8"
	transform="scale(0.001,-0.001)" />

	<path d="M343.8,-14.6c0,0,-56.1,0,-97.2,14.2c0,0,-41.2,14,-68.1,43.4c0,0,-26.9,29.5,-39.7,74.1c0,0,-12.7,44.7,-12.7,105.8l0,340.3l-79.5,0c0,0,-14.1,0,-21.6,17.6c0,0,-7.4,17.6,-7.4,58.7c0,0,0,21.7,1.8,36.6c0,0,1.9,15,5.6,23.5c0,0,3.7,8.6,9.3,12.4c0,0,5.6,3.7,13,3.7l78.8,0l0,148.6c0,0,0,7.4,4.1,13.4c0,0,4.2,6,15,10.1c0,0,10.8,4.1,29.2,6c0,0,18.3,1.8,45.2,1.8c0,0,27.7,0,46,-1.8c0,0,18.3,-1.9,28.8,-6c0,0,10.5,-4.1,15,-10.1c0,0,4.5,-6,4.5,-13.4l0,-148.6l145,0c0,0,7.5,0,13.2,-3.7c0,0,5.6,-3.8,9.3,-12.3c0,0,3.7,-8.6,5.6,-23.6c0,0,1.9,-14.9,1.9,-36.6c0,0,0,-41.1,-7.5,-58.7c0,0,-7.5,-17.6,-21.7,-17.6l-145.8,0l0,-311.8c0,0,0,-54.3,17.2,-81.5c0,0,17.2,-27.1,61.3,-27.1c0,0,15,0,26.9,2.6c0,0,12,2.6,21.3,5.9c0,0,9.4,3.4,15.7,6c0,0,6.4,2.6,11.6,2.6c0,0,4.5,0,8.6,-2.6c0,0,4.1,-2.6,6.4,-10.4c0,0,2.2,-7.9,4.1,-21.3c0,0,1.9,-13.4,1.9,-34.3c0,0,0,-32.8,-4.1,-50.4c0,0,-4.2,-17.5,-10.9,-24.6c0,0,-6.7,-7.1,-19.8,-12.7c0,0,-13.1,-5.5,-30.7,-9.6c0,0,-17.5,-4.1,-38.1,-6.3c0,0,-20.6,-2.3,-41.5,-2.3Z" 
	id="f1_bf"
	transform="scale(0.001,-0.001)" />

	<path d="M187.7,-4.8c0,0,-27.5,0,-45.4,1.9c0,0,-17.9,1.9,-28.7,5.5c0,0,-10.8,3.7,-15.3,9.3c0,0,-4.4,5.6,-4.4,13.1l0,664.3c0,0,0,7.4,4.4,13c0,0,4.5,5.6,15.3,9.7c0,0,10.8,4.1,28.7,6.4c0,0,17.9,2.2,45.4,2.2c0,0,27.6,0,45.5,-2.2c0,0,17.8,-2.3,28.6,-6.4c0,0,10.8,-4.1,15.3,-9.7c0,0,4.5,-5.6,4.5,-13L281.6,25c0,0,0,-7.5,-4.5,-13.1c0,0,-4.5,-5.6,-15.3,-9.3c0,0,-10.8,-3.6,-28.6,-5.5c0,0,-17.9,-1.9,-45.5,-1.9Zm-0.2,821.2c0,0,-63.4,0,-85.3,20.9c0,0,-22,20.8,-22,75.2c0,0,0,56.6,22.7,78.5c0,0,22.7,22,86.1,22c0,0,62.6,0,84.9,-21.2c0,0,22.4,-21.3,22.4,-75.6c0,0,0,-56.6,-23.1,-78.2c0,0,-23.1,-21.6,-85.7,-21.6Z" 
	id="f1_9q"
	transform="scale(0.001,-0.001)" />

	<path d="M408.7,132c0,0,42.4,0,73.6,15.3c0,0,31.2,15.3,51.3,44.5c0,0,20.1,29.1,29.7,70.6c0,0,9.7,41.4,9.7,94.5c0,0,0,49.3,-7.8,90.7c0,0,-7.8,41.5,-26.4,72.1c0,0,-18.6,30.7,-49.5,47.8c0,0,-30.8,17.2,-77.6,17.2c0,0,-41.7,0,-72.9,-15.3c0,0,-31.2,-15.3,-51.3,-44.8c0,0,-20.1,-29.5,-30.1,-71c0,0,-10,-41.5,-10,-94.5c0,0,0,-49.3,8.2,-90.7c0,0,8.1,-41.5,26.3,-72.1c0,0,18.3,-30.7,49.5,-47.5c0,0,31.2,-16.8,77.3,-16.8ZM402,-17.5c0,0,-88.8,0,-154.4,24.5c0,0,-65.6,24.7,-108.8,71.7c0,0,-43.3,47,-64.2,115.7c0,0,-20.8,68.7,-20.8,156.7c0,0,0,85.1,22.7,155.7c0,0,22.7,70.5,68.2,120.9c0,0,45.5,50.4,113.7,78c0,0,68.3,27.6,160,27.6c0,0,89.4,0,155.1,-24.2c0,0,65.6,-24.3,108.5,-71.3c0,0,42.8,-47,63.7,-115.7c0,0,20.9,-68.7,20.9,-157.5c0,0,0,-85.1,-22.4,-155.3c0,0,-22.4,-70.1,-67.8,-120.9c0,0,-45.5,-50.8,-114.1,-78.4c0,0,-68.6,-27.5,-160.3,-27.5Z" 
	id="f1_am"
	transform="scale(0.001,-0.001)" />


</defs>

<!-- Any embedded fonts defined here -->
<style type="text/css" ><![CDATA[

@font-face {
	font-family: Calibri_7;
	src: url("fonts/Calibri_7.woff") format("woff");
}

@font-face {
	font-family: Calibri-Bold_9;
	src: url("fonts/Calibri-Bold_9.woff") format("woff");
}

]]></style>

</svg>
